<?xml version="1.0" encoding="UTF-8"?>
<svg xmlns="http://www.w3.org/2000/svg" xmlns:xlink="http://www.w3.org/1999/xlink" width="228pt" height="228pt" viewBox="0 0 228 228" version="1.1">
<g id="surface1">
<path style=" stroke:none;fill-rule:evenodd;fill:rgb(0%,0%,0%);fill-opacity:1;" d="M 0.675781 0.679688 L 227.445313 0.679688 L 227.445313 227.453125 L 0.675781 227.453125 L 0.675781 0.679688 "/>
<path style=" stroke:none;fill-rule:evenodd;fill:rgb(100%,79.598999%,1.599121%);fill-opacity:1;" d="M 131.878906 81.648438 L 147.246094 92.242188 L 129.734375 105.636719 L 147.136719 116.84375 L 189.214844 88.695313 L 206.675781 99.914063 L 146.152344 139.703125 L 95.078125 104.984375 L 131.878906 81.648438 "/>
<path style=" stroke:none;fill-rule:evenodd;fill:rgb(21.598816%,30.599976%,63.499451%);fill-opacity:1;" d="M 190.1875 67.105469 L 166.195313 83.085938 L 100.339844 39.035156 L 124.746094 24.015625 L 190.1875 67.105469 "/>
<path style=" stroke:none;fill-rule:evenodd;fill:rgb(100%,100%,100%);fill-opacity:1;" d="M 166.238281 82.957031 L 166.117188 104.386719 L 147.136719 116.84375 L 147.246094 92.242188 L 116.265625 71.109375 L 116.117188 91.886719 L 101.203125 101.113281 L 100.339844 39.039063 L 166.238281 82.957031 "/>
<path style=" stroke:none;fill-rule:evenodd;fill:rgb(81.999207%,82.699585%,83.099365%);fill-opacity:1;" d="M 166.179688 82.917969 L 190.183594 67.105469 L 189.214844 88.695313 L 166 104.386719 L 166.179688 82.917969 "/>
<path style=" stroke:none;fill-rule:evenodd;fill:rgb(57.598877%,58.399963%,59.599304%);fill-opacity:1;" d="M 147.136719 116.84375 L 147.246094 92.242188 L 129.734375 105.636719 Z M 147.136719 116.84375 "/>
<path style=" stroke:none;fill-rule:evenodd;fill:rgb(73.699951%,74.499512%,75.299072%);fill-opacity:1;" d="M 206.675781 99.917969 L 206.601563 123.109375 L 146.226563 162.019531 L 146.152344 139.703125 L 206.675781 99.917969 "/>
<path style=" stroke:none;fill-rule:evenodd;fill:rgb(100%,100%,100%);fill-opacity:1;" d="M 146.15625 139.703125 L 95.085938 104.976563 L 95.773438 127.710938 L 146.226563 162.019531 L 146.15625 139.703125 "/>
<path style=" stroke:none;fill-rule:evenodd;fill:rgb(81.999207%,82.699585%,83.099365%);fill-opacity:1;" d="M 131.800781 81.691406 L 116.261719 71.109375 L 116.113281 91.886719 Z M 131.800781 81.691406 "/>
<path style=" stroke:none;fill-rule:nonzero;fill:rgb(100%,100%,100%);fill-opacity:1;" d="M 186.910156 204.09375 L 195.914063 204.09375 L 195.882813 187.632813 C 195.863281 186.242188 196.753906 185.84375 197.769531 185.941406 L 206.914063 185.941406 L 206.914063 180.730469 L 177.070313 180.730469 L 177.070313 185.941406 L 185.21875 185.941406 C 186.289063 185.949219 186.832031 186.539063 186.910156 187.664063 L 186.910156 204.09375 "/>
<path style=" stroke:none;fill-rule:nonzero;fill:rgb(100%,100%,100%);fill-opacity:1;" d="M 153.40625 204.09375 L 153.40625 195.582031 L 174.328125 195.582031 L 174.328125 190.910156 L 153.40625 190.910156 L 153.40625 186.96875 C 153.40625 186.527344 153.589844 186.164063 153.960938 185.859375 C 154.335938 185.558594 154.78125 185.410156 155.320313 185.410156 L 174.453125 185.410156 L 174.453125 180.738281 L 149.574219 180.738281 C 148.789063 180.738281 148.039063 180.859375 147.335938 181.109375 C 146.640625 181.359375 146.035156 181.695313 145.519531 182.109375 C 145.015625 182.527344 144.601563 183.019531 144.292969 183.585938 C 143.984375 184.160156 143.835938 184.769531 143.835938 185.410156 L 143.835938 204.09375 L 153.40625 204.09375 "/>
<path style=" stroke:none;fill-rule:nonzero;fill:rgb(100%,100%,100%);fill-opacity:1;" d="M 111.039063 199.425781 C 111.039063 200.066406 111.1875 200.671875 111.492188 201.246094 C 111.796875 201.8125 112.207031 202.3125 112.707031 202.722656 C 113.214844 203.144531 113.816406 203.472656 114.507813 203.722656 C 115.203125 203.972656 115.941406 204.09375 116.722656 204.09375 L 135.671875 204.09375 C 136.453125 204.09375 137.191406 203.972656 137.890625 203.722656 C 138.578125 203.472656 139.179688 203.136719 139.6875 202.722656 C 140.1875 202.304688 140.601563 201.8125 140.902344 201.246094 C 141.207031 200.671875 141.355469 200.066406 141.355469 199.425781 L 141.355469 185.410156 C 141.355469 184.769531 141.207031 184.160156 140.902344 183.585938 C 140.601563 183.019531 140.1875 182.519531 139.6875 182.109375 C 139.179688 181.691406 138.617188 181.230469 137.890625 181.109375 L 135.671875 180.738281 L 116.722656 180.738281 C 115.941406 180.738281 115.203125 180.859375 114.507813 181.109375 C 113.816406 181.359375 113.214844 181.695313 112.707031 182.109375 C 112.207031 182.527344 111.796875 183.019531 111.492188 183.585938 C 111.1875 184.160156 111.039063 184.769531 111.039063 185.410156 Z M 120.515625 197.867188 L 120.515625 186.96875 C 120.515625 186.527344 120.695313 186.164063 121.066406 185.859375 C 121.429688 185.558594 121.878906 185.410156 122.414063 185.410156 L 129.984375 185.410156 C 130.515625 185.410156 130.96875 185.558594 131.328125 185.859375 C 131.699219 186.164063 131.878906 186.527344 131.878906 186.96875 L 131.878906 197.867188 C 131.878906 198.304688 131.699219 198.667969 131.328125 198.972656 C 130.96875 199.277344 130.515625 199.425781 129.984375 199.425781 L 122.414063 199.425781 C 121.878906 199.425781 121.429688 199.277344 121.066406 198.972656 C 120.695313 198.667969 120.515625 198.304688 120.515625 197.867188 "/>
<path style=" stroke:none;fill-rule:nonzero;fill:rgb(100%,100%,100%);fill-opacity:1;" d="M 89.179688 185.410156 L 107.394531 185.410156 L 107.394531 180.738281 L 83.707031 180.738281 C 82.957031 180.738281 82.246094 180.859375 81.578125 181.109375 C 80.914063 181.359375 80.335938 181.691406 79.847656 182.109375 C 79.367188 182.519531 78.972656 183.019531 78.679688 183.585938 C 78.386719 184.160156 78.246094 184.769531 78.246094 185.410156 L 78.246094 190.078125 C 78.246094 190.71875 78.386719 191.328125 78.679688 191.902344 C 78.972656 192.46875 79.367188 192.96875 79.847656 193.378906 C 80.335938 193.796875 80.914063 194.128906 81.578125 194.378906 C 82.246094 194.625 82.957031 194.746094 83.707031 194.746094 L 96.457031 194.746094 C 96.972656 194.746094 97.398438 194.894531 97.753906 195.199219 C 98.109375 195.503906 98.28125 195.867188 98.28125 196.308594 L 98.28125 197.867188 L 97.753906 198.972656 C 97.550781 199.394531 96.972656 199.425781 96.457031 199.425781 L 78.246094 199.425781 L 78.246094 204.09375 L 101.929688 204.09375 C 102.679688 204.09375 103.390625 203.972656 104.0625 203.722656 C 104.726563 203.472656 105.300781 203.136719 105.789063 202.722656 C 106.273438 202.304688 106.667969 201.8125 106.960938 201.246094 C 107.25 200.671875 107.394531 200.066406 107.394531 199.425781 L 107.394531 194.746094 C 107.394531 194.105469 107.25 193.5 106.960938 192.925781 C 106.667969 192.359375 106.273438 191.867188 105.789063 191.449219 C 105.300781 191.035156 104.726563 190.699219 104.0625 190.449219 C 103.390625 190.199219 102.679688 190.078125 101.929688 190.078125 L 89.179688 190.078125 C 88.664063 190.078125 88.238281 189.929688 87.882813 189.625 C 87.53125 189.328125 87.355469 188.957031 87.355469 188.519531 L 87.355469 186.96875 C 87.355469 186.527344 87.53125 186.15625 87.882813 185.859375 C 88.238281 185.558594 88.664063 185.410156 89.179688 185.410156 "/>
<path style=" stroke:none;fill-rule:nonzero;fill:rgb(100%,100%,100%);fill-opacity:1;" d="M 56.261719 197.867188 L 56.261719 187.535156 C 56.261719 187.097656 56.4375 186.730469 56.789063 186.425781 C 57.136719 186.128906 57.570313 185.972656 58.085938 185.976563 L 75.222656 186.046875 L 75.222656 181 L 52.613281 181.023438 C 49.609375 180.976563 47.148438 182.152344 47.148438 185.410156 L 47.148438 199.425781 C 47.148438 200.066406 47.292969 200.671875 47.585938 201.246094 C 47.875 201.8125 48.269531 202.3125 48.753906 202.722656 C 49.242188 203.144531 49.816406 203.472656 50.480469 203.722656 C 51.152344 203.972656 51.863281 204.09375 52.613281 204.09375 L 75.328125 204.117188 L 75.324219 199.417969 L 58.085938 199.425781 C 57.570313 199.425781 57.136719 199.273438 56.789063 198.972656 C 56.4375 198.667969 56.261719 198.304688 56.261719 197.867188 "/>
<path style=" stroke:none;fill-rule:nonzero;fill:rgb(100%,100%,100%);fill-opacity:1;" d="M 13.023438 204.09375 L 21.300781 204.09375 L 21.300781 187.773438 C 21.300781 187.339844 21.480469 186.980469 21.847656 186.683594 C 22.207031 186.386719 22.652344 186.234375 23.183594 186.234375 L 32.972656 186.234375 C 33.503906 186.234375 33.949219 186.386719 34.308594 186.683594 C 34.671875 186.980469 34.855469 187.34375 34.855469 187.773438 L 34.855469 204.09375 L 43.136719 204.09375 L 43.136719 185.667969 C 43.136719 185.035156 42.988281 184.4375 42.6875 183.871094 C 42.386719 183.3125 41.976563 182.828125 41.480469 182.414063 C 40.972656 182.007813 40.378906 181.675781 39.695313 181.429688 C 39 181.183594 38.265625 181.066406 37.492188 181.066406 L 18.664063 181.066406 L 13.015625 181.058594 L 13.023438 204.09375 "/>
<path style=" stroke:none;fill-rule:nonzero;fill:rgb(100%,100%,100%);fill-opacity:1;" d="M 209.125 184.882813 L 209.125 181.761719 L 208.011719 181.761719 L 208.011719 181.125 L 210.996094 181.125 L 210.996094 181.761719 L 209.882813 181.761719 L 209.882813 184.882813 Z M 211.476563 184.882813 L 211.476563 181.125 L 212.613281 181.125 L 213.292969 183.6875 L 213.96875 181.125 L 215.105469 181.125 L 215.105469 184.882813 L 214.402344 184.882813 L 214.402344 181.925781 L 213.65625 184.882813 L 212.925781 184.882813 L 212.179688 181.925781 L 212.179688 184.882813 L 211.476563 184.882813 "/>
</g>
</svg>
